<svg id="Layer_1" data-name="Layer 1" xmlns="http://www.w3.org/2000/svg" viewBox="0 0 191 114"><title>logo</title><path d="M54.56,60.35a1.79,1.79,0,0,1,1.53-.09l23.56,9.66a1.8,1.8,0,0,1,1,1.16,1.77,1.77,0,0,1-.29,1.53l-2.22,3C82.41,76.65,87.1,77.8,92,78.92l7.35-6.66L26.13,37.77l-2.72-1.2L19.63,46l3.72,2.89A1.78,1.78,0,0,1,24,50.14c0,.47.82,10.45-6.21,17.61l18,3.13Z" fill="#fff"/><path d="M0,0V114H191V0ZM186.75,81.44c-1.08,4-5.61,7.52-16.72,13-10.84,5.37-20.94,7.54-35.19,7.54-9.17,0-20.06-.89-34-2.42-22.24-2.43-32.5-2.36-43.35-2.28-6.38,0-13,.09-22.27-.39-25.7-1.3-31-12.58-31.2-13.06a1.75,1.75,0,0,1,.08-1.59L12.25,68a1.76,1.76,0,0,1,.54-.58c7.25-5,7.76-13.64,7.74-16.21L16.41,48a1.75,1.75,0,0,1-.55-2L20.8,33.56a1.78,1.78,0,0,1,2.36-1l2.44,1.08L26.2,31a1.78,1.78,0,0,1,1.11-1.28c.05,0,5.27-1.94,10.07-4.34l.37-.18c4.73-2.37,7.86-3.94,11.81,2.42,2.4,3.87,9,12.38,18,8,8.3-4,1.85-20,1.78-20.17a1.78,1.78,0,0,1,0-1.38,1.73,1.73,0,0,1,1-.95c1.67-.62,10.16-3.67,13.47-3.09s9.38,9.83,12.89,15.53l4.1,2.9.61-.45a1.77,1.77,0,0,1,2.39,2.57l3.57,2.52.68-.5a1.76,1.76,0,0,1,2.34,2.62L114,37.72l.73-.53a1.76,1.76,0,0,1,2.31,2.65l3.58,2.48.74-.55a1.76,1.76,0,0,1,2.32,2.64c1.34.91,2.56,1.74,3.63,2.45l.69-.51A1.77,1.77,0,0,1,130.4,49c5.47,3.89,7.31,6.2,7.93,7.29.77.6,3.81,2.76,11.12,5.85,6.39,2.71,16.31,2.12,22.24,1.77a41.36,41.36,0,0,1,5.16-.13c4.24.42,6.65,6.63,7.25,8.4C186.3,75.5,187.57,78.38,186.75,81.44Z" fill="#fff"/><path d="M44.23,70.2a81.83,81.83,0,0,1,25.11,3c1.58.46,3.31.94,5.15,1.43l1.7-2.26L55.54,63.85Z" fill="#fff"/><path d="M104.28,71.53a1.81,1.81,0,0,1-.56,1.57l-7.47,6.76c16.36,3.57,34.49,6.65,46.56,6.65,17.52,0,32.36-6.58,35.38-8l2.41-5.65c-.91-2.44-2.68-5.46-4.11-5.6a41.65,41.65,0,0,0-4.59.14c-6.24.37-16.68,1-23.83-2-9.21-3.9-12.06-6.42-12.35-6.7a1.13,1.13,0,0,1-.46-.67c-.22-.36-1.68-2.53-7.82-6.79l-3.08,2.28a1.8,1.8,0,0,1-1,.34,1.76,1.76,0,0,1-1-3.18l2.07-1.53-3.6-2.44-3,2.22a1.7,1.7,0,0,1-1,.35,1.77,1.77,0,0,1-1-3.19l2-1.5-3.56-2.47-3,2.23a1.77,1.77,0,1,1-2.1-2.84l2-1.52-3.54-2.48-3,2.26a1.8,1.8,0,0,1-1,.34,1.76,1.76,0,0,1-1.06-3.18l2.11-1.56-3.53-2.49-3.11,2.31a1.8,1.8,0,0,1-1,.34,1.76,1.76,0,0,1-1.05-3.18l2.17-1.61-3.45-2.45a1.86,1.86,0,0,1-.49-.52C90,21.33,84.77,14.09,83.19,13.51c-1.45-.25-6.19,1.07-9.89,2.34,1.64,4.87,5.22,18.44-4.16,23-8.09,3.91-16.54.42-22.58-9.31-2.25-3.63-2.63-3.44-7.23-1.13l-.37.19c-3.82,1.9-7.78,3.48-9.52,4.15l-.55,2.46,74.39,35A1.76,1.76,0,0,1,104.28,71.53Z" fill="#fff"/><path d="M181.18,80.49a1.76,1.76,0,0,1-.82.88A90.21,90.21,0,0,1,142.81,90c-20.06,0-56.31-8.27-74.45-13.49a78.64,78.64,0,0,0-31.94-2.08,1.62,1.62,0,0,1-.62,0L14.71,70.8l-7,12.3c1.6,2.25,8.13,9.28,27.72,10.28,9.19.46,15.73.42,22.06.37l5.67,0a322.54,322.54,0,0,1,38.09,2.33c35.37,3.87,50.05,3.72,67.22-4.77,9.8-4.86,14.11-8,14.87-10.77a5.33,5.33,0,0,0-.6-3.67Z" fill="#fff"/></svg>